STARTFONT 2.1
COMMENT Copyright (C) 1990-1991 EWT Consulting
COMMENT Portions Copyright (C) 1994-1995 Cronyx Ltd.
COMMENT Changes Copyright (C) 1996-1997 by Andrey A. Chernov, Moscow, Russia.
COMMENT Modified by Serge Vakulenko, <vak@cronyx.ru>
COMMENT Changes 1999 by Serge Winitzki.
COMMENT This software may be used, modified, copied, distributed, and sold,
COMMENT in both source and binary form provided that the copyright
COMMENT and these terms are retained. Under no circumstances is the author
COMMENT responsible for the proper functioning of this software, nor does
COMMENT the author assume any responsibility for damages incurred with its use.
COMMENT $XFree86$
FONT -Cronyx-Times-Medium-R-Normal--11-80-100-100-P-44-KOI8-R
SIZE 8 96 96
FONTBOUNDINGBOX 10 13 0 -2
STARTPROPERTIES 21
DEFAULT_CHAR 32
FONT_ASCENT 11
FONT_DESCENT 2
SPACING "P"
FONTNAME_REGISTRY ""
FOUNDRY "Cronyx"
FAMILY_NAME "Times"
WEIGHT_NAME "Medium"
SLANT "R"
SETWIDTH_NAME "Normal"
ADD_STYLE_NAME ""
AVERAGE_WIDTH 44
CHARSET_REGISTRY "KOI8"
CHARSET_ENCODING "R"
PIXEL_SIZE 11
POINT_SIZE 80
RESOLUTION_X 100
RESOLUTION_Y 100
COPYRIGHT "Copyright (C) 1990, 1991 EWT Consulting, Portions Copyright (C) 1994 Cronyx Ltd., Portions Copyright (C) 1996-1997 by Andrey A. Chernov, Moscow, Russia."
_XMBDFED_INFO "Edited with xmbdfed 4.3."
_XFREE86_GLYPH_RANGES "32_126 149 154 156_158 163 179 191_255"
ENDPROPERTIES
CHARS 167
STARTCHAR space
ENCODING 32
SWIDTH 187 0
DWIDTH 2 0
BBX 0 0 0 0
BITMAP
ENDCHAR
STARTCHAR exclam
ENCODING 33
SWIDTH 281 0
DWIDTH 3 0
BBX 1 9 1 0
BITMAP
80
80
80
80
80
80
00
00
80
ENDCHAR
STARTCHAR quotedbl
ENCODING 34
SWIDTH 375 0
DWIDTH 4 0
BBX 3 3 1 6
BITMAP
A0
A0
A0
ENDCHAR
STARTCHAR numbersign
ENCODING 35
SWIDTH 562 0
DWIDTH 6 0
BBX 5 9 1 0
BITMAP
50
50
F8
50
50
50
F8
50
50
ENDCHAR
STARTCHAR dollar
ENCODING 36
SWIDTH 468 0
DWIDTH 5 0
BBX 4 10 1 -1
BITMAP
20
60
90
80
40
20
10
90
60
20
ENDCHAR
STARTCHAR percent
ENCODING 37
SWIDTH 937 0
DWIDTH 10 0
BBX 9 9 1 0
BITMAP
6080
9100
9200
6400
0800
1300
2480
4480
8300
ENDCHAR
STARTCHAR ampersand
ENCODING 38
SWIDTH 750 0
DWIDTH 8 0
BBX 7 9 1 0
BITMAP
60
90
90
60
60
96
94
88
74
ENDCHAR
STARTCHAR quotesingle
ENCODING 39
SWIDTH 187 0
DWIDTH 2 0
BBX 1 3 1 6
BITMAP
80
80
80
ENDCHAR
STARTCHAR parenleft
ENCODING 40
SWIDTH 281 0
DWIDTH 3 0
BBX 2 11 1 -2
BITMAP
40
40
80
80
80
80
80
80
80
40
40
ENDCHAR
STARTCHAR parenright
ENCODING 41
SWIDTH 281 0
DWIDTH 3 0
BBX 2 11 1 -2
BITMAP
80
80
40
40
40
40
40
40
40
80
80
ENDCHAR
STARTCHAR asterisk
ENCODING 42
SWIDTH 468 0
DWIDTH 5 0
BBX 4 4 1 5
BITMAP
90
60
60
90
ENDCHAR
STARTCHAR plus
ENCODING 43
SWIDTH 562 0
DWIDTH 6 0
BBX 5 5 1 2
BITMAP
20
20
F8
20
20
ENDCHAR
STARTCHAR comma
ENCODING 44
SWIDTH 281 0
DWIDTH 3 0
BBX 2 2 1 -1
BITMAP
40
80
ENDCHAR
STARTCHAR hyphen
ENCODING 45
SWIDTH 281 0
DWIDTH 3 0
BBX 2 1 1 4
BITMAP
C0
ENDCHAR
STARTCHAR period
ENCODING 46
SWIDTH 187 0
DWIDTH 2 0
BBX 1 1 1 0
BITMAP
80
ENDCHAR
STARTCHAR slash
ENCODING 47
SWIDTH 281 0
DWIDTH 3 0
BBX 2 9 1 0
BITMAP
40
40
40
40
40
80
80
80
80
ENDCHAR
STARTCHAR zero
ENCODING 48
SWIDTH 468 0
DWIDTH 5 0
BBX 4 9 1 0
BITMAP
60
90
90
90
90
90
90
90
60
ENDCHAR
STARTCHAR one
ENCODING 49
SWIDTH 468 0
DWIDTH 5 0
BBX 3 9 2 0
BITMAP
40
C0
40
40
40
40
40
40
E0
ENDCHAR
STARTCHAR two
ENCODING 50
SWIDTH 468 0
DWIDTH 5 0
BBX 4 9 1 0
BITMAP
60
90
10
10
20
40
80
90
F0
ENDCHAR
STARTCHAR three
ENCODING 51
SWIDTH 468 0
DWIDTH 5 0
BBX 4 9 1 0
BITMAP
60
90
10
10
60
10
10
90
60
ENDCHAR
STARTCHAR four
ENCODING 52
SWIDTH 468 0
DWIDTH 5 0
BBX 4 9 1 0
BITMAP
10
30
30
50
50
90
F0
10
10
ENDCHAR
STARTCHAR five
ENCODING 53
SWIDTH 468 0
DWIDTH 5 0
BBX 4 9 1 0
BITMAP
F0
80
80
E0
90
10
10
90
60
ENDCHAR
STARTCHAR six
ENCODING 54
SWIDTH 468 0
DWIDTH 5 0
BBX 4 9 1 0
BITMAP
60
90
80
80
E0
90
90
90
60
ENDCHAR
STARTCHAR seven
ENCODING 55
SWIDTH 468 0
DWIDTH 5 0
BBX 4 9 1 0
BITMAP
F0
90
90
20
20
20
40
40
40
ENDCHAR
STARTCHAR eight
ENCODING 56
SWIDTH 468 0
DWIDTH 5 0
BBX 4 9 1 0
BITMAP
60
90
90
90
60
90
90
90
60
ENDCHAR
STARTCHAR nine
ENCODING 57
SWIDTH 468 0
DWIDTH 5 0
BBX 4 9 1 0
BITMAP
60
90
90
90
70
10
10
10
60
ENDCHAR
STARTCHAR colon
ENCODING 58
SWIDTH 187 0
DWIDTH 2 0
BBX 1 6 1 0
BITMAP
80
00
00
00
00
80
ENDCHAR
STARTCHAR semicolon
ENCODING 59
SWIDTH 281 0
DWIDTH 3 0
BBX 2 7 1 -1
BITMAP
40
00
00
00
00
40
80
ENDCHAR
STARTCHAR less
ENCODING 60
SWIDTH 562 0
DWIDTH 6 0
BBX 5 5 1 1
BITMAP
18
60
80
60
18
ENDCHAR
STARTCHAR equal
ENCODING 61
SWIDTH 562 0
DWIDTH 6 0
BBX 5 3 1 2
BITMAP
F8
00
F8
ENDCHAR
STARTCHAR greater
ENCODING 62
SWIDTH 562 0
DWIDTH 6 0
BBX 5 5 1 1
BITMAP
C0
30
08
30
C0
ENDCHAR
STARTCHAR question
ENCODING 63
SWIDTH 468 0
DWIDTH 5 0
BBX 4 9 1 0
BITMAP
60
90
90
10
20
40
40
00
40
ENDCHAR
STARTCHAR at
ENCODING 64
SWIDTH 843 0
DWIDTH 9 0
BBX 8 10 1 -1
BITMAP
3C
42
9D
A5
A5
A5
A5
9A
40
3C
ENDCHAR
STARTCHAR A
ENCODING 65
SWIDTH 750 0
DWIDTH 8 0
BBX 7 9 1 0
BITMAP
10
10
28
28
28
44
7C
44
EE
ENDCHAR
STARTCHAR B
ENCODING 66
SWIDTH 562 0
DWIDTH 6 0
BBX 5 9 1 0
BITMAP
F0
48
48
48
70
48
48
48
F0
ENDCHAR
STARTCHAR C
ENCODING 67
SWIDTH 562 0
DWIDTH 6 0
BBX 5 9 1 0
BITMAP
78
88
80
80
80
80
80
88
70
ENDCHAR
STARTCHAR D
ENCODING 68
SWIDTH 656 0
DWIDTH 7 0
BBX 6 9 1 0
BITMAP
F0
48
44
44
44
44
44
48
F0
ENDCHAR
STARTCHAR E
ENCODING 69
SWIDTH 562 0
DWIDTH 6 0
BBX 5 9 1 0
BITMAP
F8
48
40
50
70
50
40
48
F8
ENDCHAR
STARTCHAR F
ENCODING 70
SWIDTH 562 0
DWIDTH 6 0
BBX 5 9 1 0
BITMAP
F8
48
40
50
70
50
40
40
E0
ENDCHAR
STARTCHAR G
ENCODING 71
SWIDTH 656 0
DWIDTH 7 0
BBX 6 9 1 0
BITMAP
78
88
80
80
9C
88
88
88
70
ENDCHAR
STARTCHAR H
ENCODING 72
SWIDTH 750 0
DWIDTH 8 0
BBX 7 9 1 0
BITMAP
EE
44
44
44
7C
44
44
44
EE
ENDCHAR
STARTCHAR I
ENCODING 73
SWIDTH 375 0
DWIDTH 4 0
BBX 3 9 1 0
BITMAP
E0
40
40
40
40
40
40
40
E0
ENDCHAR
STARTCHAR J
ENCODING 74
SWIDTH 468 0
DWIDTH 5 0
BBX 4 9 1 0
BITMAP
70
20
20
20
20
20
20
A0
C0
ENDCHAR
STARTCHAR K
ENCODING 75
SWIDTH 750 0
DWIDTH 8 0
BBX 7 9 1 0
BITMAP
EC
48
50
60
60
50
48
44
E6
ENDCHAR
STARTCHAR L
ENCODING 76
SWIDTH 562 0
DWIDTH 6 0
BBX 5 9 1 0
BITMAP
E0
40
40
40
40
40
40
48
F8
ENDCHAR
STARTCHAR M
ENCODING 77
SWIDTH 937 0
DWIDTH 10 0
BBX 9 9 1 0
BITMAP
C180
4100
6300
6300
5500
5500
4900
4900
E380
ENDCHAR
STARTCHAR N
ENCODING 78
SWIDTH 750 0
DWIDTH 8 0
BBX 7 9 1 0
BITMAP
CE
44
64
64
54
54
4C
4C
E4
ENDCHAR
STARTCHAR O
ENCODING 79
SWIDTH 562 0
DWIDTH 6 0
BBX 5 9 1 0
BITMAP
70
88
88
88
88
88
88
88
70
ENDCHAR
STARTCHAR P
ENCODING 80
SWIDTH 562 0
DWIDTH 6 0
BBX 5 9 1 0
BITMAP
F0
48
48
48
70
40
40
40
E0
ENDCHAR
STARTCHAR Q
ENCODING 81
SWIDTH 562 0
DWIDTH 6 0
BBX 5 11 1 -2
BITMAP
70
88
88
88
88
88
88
88
70
30
18
ENDCHAR
STARTCHAR R
ENCODING 82
SWIDTH 656 0
DWIDTH 7 0
BBX 6 9 1 0
BITMAP
F0
48
48
48
70
50
48
48
EC
ENDCHAR
STARTCHAR S
ENCODING 83
SWIDTH 375 0
DWIDTH 4 0
BBX 3 9 1 0
BITMAP
60
A0
80
80
40
20
20
A0
C0
ENDCHAR
STARTCHAR T
ENCODING 84
SWIDTH 562 0
DWIDTH 6 0
BBX 5 9 1 0
BITMAP
F8
A8
20
20
20
20
20
20
70
ENDCHAR
STARTCHAR U
ENCODING 85
SWIDTH 750 0
DWIDTH 8 0
BBX 7 9 1 0
BITMAP
EE
44
44
44
44
44
44
44
38
ENDCHAR
STARTCHAR V
ENCODING 86
SWIDTH 750 0
DWIDTH 8 0
BBX 7 9 1 0
BITMAP
EE
44
44
44
28
28
28
10
10
ENDCHAR
STARTCHAR W
ENCODING 87
SWIDTH 937 0
DWIDTH 10 0
BBX 9 9 1 0
BITMAP
E380
4100
4100
4900
4900
5500
5500
2200
2200
ENDCHAR
STARTCHAR X
ENCODING 88
SWIDTH 750 0
DWIDTH 8 0
BBX 7 9 1 0
BITMAP
EE
44
28
28
10
28
28
44
EE
ENDCHAR
STARTCHAR Y
ENCODING 89
SWIDTH 750 0
DWIDTH 8 0
BBX 7 9 1 0
BITMAP
EE
44
44
28
28
10
10
10
38
ENDCHAR
STARTCHAR Z
ENCODING 90
SWIDTH 562 0
DWIDTH 6 0
BBX 5 9 1 0
BITMAP
F8
88
10
10
20
40
40
88
F8
ENDCHAR
STARTCHAR bracketleft
ENCODING 91
SWIDTH 281 0
DWIDTH 3 0
BBX 2 11 1 -2
BITMAP
C0
80
80
80
80
80
80
80
80
80
C0
ENDCHAR
STARTCHAR backslash
ENCODING 92
SWIDTH 281 0
DWIDTH 3 0
BBX 2 10 1 0
BITMAP
80
80
80
80
80
40
40
40
40
40
ENDCHAR
STARTCHAR bracketright
ENCODING 93
SWIDTH 281 0
DWIDTH 3 0
BBX 2 11 1 -2
BITMAP
C0
40
40
40
40
40
40
40
40
40
C0
ENDCHAR
STARTCHAR asciicircum
ENCODING 94
SWIDTH 468 0
DWIDTH 5 0
BBX 4 2 1 7
BITMAP
60
90
ENDCHAR
STARTCHAR underscore
ENCODING 95
SWIDTH 468 0
DWIDTH 5 0
BBX 5 1 0 -2
BITMAP
F8
ENDCHAR
STARTCHAR grave
ENCODING 96
SWIDTH 281 0
DWIDTH 3 0
BBX 2 2 1 7
BITMAP
80
40
ENDCHAR
STARTCHAR a
ENCODING 97
SWIDTH 468 0
DWIDTH 5 0
BBX 4 6 1 0
BITMAP
60
10
70
90
90
70
ENDCHAR
STARTCHAR b
ENCODING 98
SWIDTH 468 0
DWIDTH 5 0
BBX 5 9 0 0
BITMAP
C0
40
40
70
48
48
48
48
30
ENDCHAR
STARTCHAR c
ENCODING 99
SWIDTH 468 0
DWIDTH 5 0
BBX 4 6 1 0
BITMAP
60
90
80
80
90
60
ENDCHAR
STARTCHAR d
ENCODING 100
SWIDTH 468 0
DWIDTH 5 0
BBX 4 9 1 0
BITMAP
30
10
10
70
90
90
90
90
70
ENDCHAR
STARTCHAR e
ENCODING 101
SWIDTH 468 0
DWIDTH 5 0
BBX 4 6 1 0
BITMAP
60
90
F0
80
90
60
ENDCHAR
STARTCHAR f
ENCODING 102
SWIDTH 375 0
DWIDTH 4 0
BBX 3 9 1 0
BITMAP
20
40
40
E0
40
40
40
40
60
ENDCHAR
STARTCHAR g
ENCODING 103
SWIDTH 468 0
DWIDTH 5 0
BBX 4 8 1 -2
BITMAP
70
90
90
90
90
70
10
60
ENDCHAR
STARTCHAR h
ENCODING 104
SWIDTH 468 0
DWIDTH 5 0
BBX 5 9 0 0
BITMAP
C0
40
40
70
48
48
48
48
48
ENDCHAR
STARTCHAR i
ENCODING 105
SWIDTH 281 0
DWIDTH 3 0
BBX 2 9 1 0
BITMAP
40
00
00
C0
40
40
40
40
40
ENDCHAR
STARTCHAR j
ENCODING 106
SWIDTH 281 0
DWIDTH 3 0
BBX 2 11 1 -2
BITMAP
40
00
00
C0
40
40
40
40
40
40
80
ENDCHAR
STARTCHAR k
ENCODING 107
SWIDTH 468 0
DWIDTH 5 0
BBX 5 9 0 0
BITMAP
C0
40
40
48
50
60
60
50
48
ENDCHAR
STARTCHAR l
ENCODING 108
SWIDTH 187 0
DWIDTH 2 0
BBX 2 9 0 0
BITMAP
C0
40
40
40
40
40
40
40
40
ENDCHAR
STARTCHAR m
ENCODING 109
SWIDTH 750 0
DWIDTH 8 0
BBX 8 6 0 0
BITMAP
B6
49
49
49
49
49
ENDCHAR
STARTCHAR n
ENCODING 110
SWIDTH 468 0
DWIDTH 5 0
BBX 5 6 0 0
BITMAP
B0
48
48
48
48
48
ENDCHAR
STARTCHAR o
ENCODING 111
SWIDTH 468 0
DWIDTH 5 0
BBX 4 6 1 0
BITMAP
60
90
90
90
90
60
ENDCHAR
STARTCHAR p
ENCODING 112
SWIDTH 468 0
DWIDTH 5 0
BBX 5 8 0 -2
BITMAP
B0
48
48
48
48
70
40
E0
ENDCHAR
STARTCHAR q
ENCODING 113
SWIDTH 562 0
DWIDTH 6 0
BBX 5 8 1 -2
BITMAP
60
90
90
90
90
70
10
18
ENDCHAR
STARTCHAR r
ENCODING 114
SWIDTH 375 0
DWIDTH 4 0
BBX 4 6 0 0
BITMAP
B0
50
40
40
40
60
ENDCHAR
STARTCHAR s
ENCODING 115
SWIDTH 375 0
DWIDTH 4 0
BBX 3 6 1 0
BITMAP
60
80
40
20
20
C0
ENDCHAR
STARTCHAR t
ENCODING 116
SWIDTH 375 0
DWIDTH 4 0
BBX 3 8 1 0
BITMAP
40
40
E0
40
40
40
40
20
ENDCHAR
STARTCHAR u
ENCODING 117
SWIDTH 468 0
DWIDTH 5 0
BBX 5 6 0 0
BITMAP
D8
48
48
48
48
38
ENDCHAR
STARTCHAR v
ENCODING 118
SWIDTH 468 0
DWIDTH 5 0
BBX 5 6 0 0
BITMAP
88
88
50
50
20
20
ENDCHAR
STARTCHAR w
ENCODING 119
SWIDTH 750 0
DWIDTH 8 0
BBX 7 6 1 0
BITMAP
D6
92
AA
AA
44
44
ENDCHAR
STARTCHAR x
ENCODING 120
SWIDTH 468 0
DWIDTH 5 0
BBX 5 6 0 0
BITMAP
D8
50
20
20
50
D8
ENDCHAR
STARTCHAR y
ENCODING 121
SWIDTH 468 0
DWIDTH 5 0
BBX 4 8 1 -2
BITMAP
90
90
90
90
60
40
40
80
ENDCHAR
STARTCHAR z
ENCODING 122
SWIDTH 468 0
DWIDTH 5 0
BBX 4 6 1 0
BITMAP
F0
90
20
40
90
F0
ENDCHAR
STARTCHAR braceleft
ENCODING 123
SWIDTH 375 0
DWIDTH 4 0
BBX 3 11 1 -2
BITMAP
20
40
40
40
40
80
40
40
40
40
20
ENDCHAR
STARTCHAR bar
ENCODING 124
SWIDTH 187 0
DWIDTH 2 0
BBX 1 9 1 -1
BITMAP
80
80
80
80
80
80
80
80
80
ENDCHAR
STARTCHAR braceright
ENCODING 125
SWIDTH 375 0
DWIDTH 4 0
BBX 3 11 1 -2
BITMAP
80
40
40
40
40
20
40
40
40
40
80
ENDCHAR
STARTCHAR asciitilde
ENCODING 126
SWIDTH 562 0
DWIDTH 6 0
BBX 5 2 1 7
BITMAP
68
B0
ENDCHAR
STARTCHAR bullet
ENCODING 149
SWIDTH 468 0
DWIDTH 5 0
BBX 4 4 1 2
BITMAP
60
F0
F0
60
ENDCHAR
STARTCHAR space
ENCODING 154
SWIDTH 187 0
DWIDTH 2 0
BBX 0 0 0 0
BITMAP
ENDCHAR
STARTCHAR degree
ENCODING 156
SWIDTH 281 0
DWIDTH 3 0
BBX 3 3 0 6
BITMAP
40
A0
40
ENDCHAR
STARTCHAR twosuperior
ENCODING 157
SWIDTH 281 0
DWIDTH 3 0
BBX 3 5 0 4
BITMAP
C0
20
40
80
E0
ENDCHAR
STARTCHAR periodcentered
ENCODING 158
SWIDTH 281 0
DWIDTH 3 0
BBX 2 2 1 3
BITMAP
C0
C0
ENDCHAR
STARTCHAR afii10071
ENCODING 163
SWIDTH 375 0
DWIDTH 4 0
BBX 4 8 1 0
BITMAP
90
00
60
90
F0
80
90
60
ENDCHAR
STARTCHAR afii10023
ENCODING 179
SWIDTH 562 0
DWIDTH 6 0
BBX 6 11 1 0
BITMAP
6C
00
FC
44
40
48
78
48
40
44
FC
ENDCHAR
STARTCHAR copyright
ENCODING 191
SWIDTH 750 0
DWIDTH 8 0
BBX 7 8 1 1
BITMAP
38
44
BA
A2
A2
BA
44
38
ENDCHAR
STARTCHAR afii10096
ENCODING 192
SWIDTH 843 0
DWIDTH 9 0
BBX 7 6 1 0
BITMAP
EC
52
72
52
52
EC
ENDCHAR
STARTCHAR afii10065
ENCODING 193
SWIDTH 468 0
DWIDTH 5 0
BBX 4 6 1 0
BITMAP
60
10
70
90
90
70
ENDCHAR
STARTCHAR afii10066
ENCODING 194
SWIDTH 468 0
DWIDTH 5 0
BBX 4 9 1 0
BITMAP
10
60
80
E0
90
90
90
90
60
ENDCHAR
STARTCHAR afii10088
ENCODING 195
SWIDTH 562 0
DWIDTH 6 0
BBX 5 7 1 -1
BITMAP
90
90
90
90
90
F8
08
ENDCHAR
STARTCHAR afii10069
ENCODING 196
SWIDTH 656 0
DWIDTH 7 0
BBX 6 7 1 -1
BITMAP
38
28
28
28
48
FC
84
ENDCHAR
STARTCHAR afii10070
ENCODING 197
SWIDTH 468 0
DWIDTH 5 0
BBX 4 6 1 0
BITMAP
60
90
F0
80
90
60
ENDCHAR
STARTCHAR afii10086
ENCODING 198
SWIDTH 562 0
DWIDTH 6 0
BBX 5 10 1 -2
BITMAP
70
20
70
A8
A8
A8
A8
70
20
70
ENDCHAR
STARTCHAR afii10068
ENCODING 199
SWIDTH 562 0
DWIDTH 6 0
BBX 5 6 1 0
BITMAP
F8
48
40
40
40
E0
ENDCHAR
STARTCHAR afii10087
ENCODING 200
SWIDTH 562 0
DWIDTH 6 0
BBX 5 6 1 0
BITMAP
D8
50
20
20
50
D8
ENDCHAR
STARTCHAR afii10074
ENCODING 201
SWIDTH 468 0
DWIDTH 5 0
BBX 4 6 1 0
BITMAP
90
90
B0
D0
90
90
ENDCHAR
STARTCHAR afii10075
ENCODING 202
SWIDTH 468 0
DWIDTH 5 0
BBX 4 8 1 0
BITMAP
60
00
90
90
B0
D0
90
90
ENDCHAR
STARTCHAR afii10076
ENCODING 203
SWIDTH 468 0
DWIDTH 5 0
BBX 4 6 1 0
BITMAP
90
A0
C0
A0
90
90
ENDCHAR
STARTCHAR afii10077
ENCODING 204
SWIDTH 468 0
DWIDTH 5 0
BBX 4 6 1 0
BITMAP
30
50
50
50
50
90
ENDCHAR
STARTCHAR afii10078
ENCODING 205
SWIDTH 562 0
DWIDTH 6 0
BBX 5 6 1 0
BITMAP
88
D8
D8
A8
A8
88
ENDCHAR
STARTCHAR afii10079
ENCODING 206
SWIDTH 468 0
DWIDTH 5 0
BBX 4 6 1 0
BITMAP
90
90
F0
90
90
90
ENDCHAR
STARTCHAR afii10080
ENCODING 207
SWIDTH 468 0
DWIDTH 5 0
BBX 4 6 1 0
BITMAP
60
90
90
90
90
60
ENDCHAR
STARTCHAR afii10081
ENCODING 208
SWIDTH 468 0
DWIDTH 5 0
BBX 4 6 1 0
BITMAP
F0
90
90
90
90
90
ENDCHAR
STARTCHAR afii10097
ENCODING 209
SWIDTH 562 0
DWIDTH 6 0
BBX 6 6 0 0
BITMAP
3C
48
48
38
28
CC
ENDCHAR
STARTCHAR afii10082
ENCODING 210
SWIDTH 562 0
DWIDTH 6 0
BBX 5 8 1 -2
BITMAP
F0
48
48
48
48
70
40
E0
ENDCHAR
STARTCHAR afii10083
ENCODING 211
SWIDTH 468 0
DWIDTH 5 0
BBX 4 6 1 0
BITMAP
60
90
80
80
90
60
ENDCHAR
STARTCHAR afii10084
ENCODING 212
SWIDTH 562 0
DWIDTH 6 0
BBX 5 6 1 0
BITMAP
F8
A8
20
20
20
70
ENDCHAR
STARTCHAR afii10085
ENCODING 213
SWIDTH 562 0
DWIDTH 6 0
BBX 5 8 1 -2
BITMAP
88
88
50
50
20
20
20
C0
ENDCHAR
STARTCHAR afii10072
ENCODING 214
SWIDTH 750 0
DWIDTH 8 0
BBX 7 6 1 0
BITMAP
92
54
38
54
92
92
ENDCHAR
STARTCHAR afii10067
ENCODING 215
SWIDTH 562 0
DWIDTH 6 0
BBX 5 6 1 0
BITMAP
F0
48
70
48
48
F0
ENDCHAR
STARTCHAR afii10094
ENCODING 216
SWIDTH 562 0
DWIDTH 6 0
BBX 5 6 1 0
BITMAP
C0
40
70
48
48
F0
ENDCHAR
STARTCHAR afii10093
ENCODING 217
SWIDTH 750 0
DWIDTH 8 0
BBX 7 6 1 0
BITMAP
C6
42
72
4A
4A
F6
ENDCHAR
STARTCHAR afii10073
ENCODING 218
SWIDTH 562 0
DWIDTH 6 0
BBX 5 6 1 0
BITMAP
70
88
10
08
88
70
ENDCHAR
STARTCHAR afii10090
ENCODING 219
SWIDTH 750 0
DWIDTH 8 0
BBX 7 6 1 0
BITMAP
92
92
92
92
92
FE
ENDCHAR
STARTCHAR afii10095
ENCODING 220
SWIDTH 562 0
DWIDTH 6 0
BBX 5 6 1 0
BITMAP
70
88
38
08
88
70
ENDCHAR
STARTCHAR afii10091
ENCODING 221
SWIDTH 843 0
DWIDTH 9 0
BBX 8 7 1 -1
BITMAP
92
92
92
92
92
FF
01
ENDCHAR
STARTCHAR afii10089
ENCODING 222
SWIDTH 468 0
DWIDTH 5 0
BBX 4 6 1 0
BITMAP
90
90
90
70
10
10
ENDCHAR
STARTCHAR afii10092
ENCODING 223
SWIDTH 656 0
DWIDTH 7 0
BBX 6 6 1 0
BITMAP
E0
A0
38
24
24
78
ENDCHAR
STARTCHAR afii10048
ENCODING 224
SWIDTH 937 0
DWIDTH 10 0
BBX 9 9 1 0
BITMAP
E700
4880
4880
4880
7880
4880
4880
4880
E700
ENDCHAR
STARTCHAR afii10017
ENCODING 225
SWIDTH 750 0
DWIDTH 8 0
BBX 7 9 1 0
BITMAP
10
10
28
28
28
44
7C
44
EE
ENDCHAR
STARTCHAR afii10018
ENCODING 226
SWIDTH 656 0
DWIDTH 7 0
BBX 6 9 1 0
BITMAP
FC
44
40
78
44
44
44
44
F8
ENDCHAR
STARTCHAR afii10040
ENCODING 227
SWIDTH 750 0
DWIDTH 8 0
BBX 7 11 1 -2
BITMAP
EE
44
44
44
44
44
44
44
FE
02
02
ENDCHAR
STARTCHAR afii10021
ENCODING 228
SWIDTH 750 0
DWIDTH 8 0
BBX 7 10 1 -1
BITMAP
3C
24
24
24
24
24
24
44
FE
82
ENDCHAR
STARTCHAR afii10022
ENCODING 229
SWIDTH 656 0
DWIDTH 7 0
BBX 6 9 1 0
BITMAP
FC
44
40
48
78
48
40
44
FC
ENDCHAR
STARTCHAR afii10038
ENCODING 230
SWIDTH 937 0
DWIDTH 10 0
BBX 7 10 2 0
BITMAP
38
10
7C
92
92
92
92
7C
10
38
ENDCHAR
STARTCHAR afii10020
ENCODING 231
SWIDTH 656 0
DWIDTH 7 0
BBX 6 9 1 0
BITMAP
FC
44
40
40
40
40
40
40
E0
ENDCHAR
STARTCHAR afii10039
ENCODING 232
SWIDTH 750 0
DWIDTH 8 0
BBX 7 9 1 0
BITMAP
EE
44
44
28
10
28
44
44
EE
ENDCHAR
STARTCHAR afii10026
ENCODING 233
SWIDTH 750 0
DWIDTH 8 0
BBX 7 9 1 0
BITMAP
EE
44
44
4C
54
54
64
44
EE
ENDCHAR
STARTCHAR afii10027
ENCODING 234
SWIDTH 750 0
DWIDTH 8 0
BBX 7 11 1 0
BITMAP
38
00
EE
44
44
44
4C
54
64
44
EE
ENDCHAR
STARTCHAR afii10028
ENCODING 235
SWIDTH 750 0
DWIDTH 8 0
BBX 7 9 1 0
BITMAP
EE
44
48
50
68
48
44
44
EE
ENDCHAR
STARTCHAR afii10029
ENCODING 236
SWIDTH 562 0
DWIDTH 6 0
BBX 6 9 0 0
BITMAP
3C
24
24
24
24
24
24
24
C4
ENDCHAR
STARTCHAR afii10030
ENCODING 237
SWIDTH 937 0
DWIDTH 10 0
BBX 9 9 1 0
BITMAP
C180
4100
6300
6300
5500
5500
4900
4900
E380
ENDCHAR
STARTCHAR afii10031
ENCODING 238
SWIDTH 750 0
DWIDTH 8 0
BBX 7 9 1 0
BITMAP
EE
44
44
44
7C
44
44
44
EE
ENDCHAR
STARTCHAR afii10032
ENCODING 239
SWIDTH 562 0
DWIDTH 6 0
BBX 5 9 1 0
BITMAP
70
88
88
88
88
88
88
88
70
ENDCHAR
STARTCHAR afii10033
ENCODING 240
SWIDTH 750 0
DWIDTH 8 0
BBX 7 9 1 0
BITMAP
FE
44
44
44
44
44
44
44
EE
ENDCHAR
STARTCHAR afii10049
ENCODING 241
SWIDTH 750 0
DWIDTH 8 0
BBX 7 9 1 0
BITMAP
3E
44
44
44
3C
14
24
24
CE
ENDCHAR
STARTCHAR afii10034
ENCODING 242
SWIDTH 656 0
DWIDTH 7 0
BBX 6 9 1 0
BITMAP
F8
44
44
44
44
78
40
40
E0
ENDCHAR
STARTCHAR afii10035
ENCODING 243
SWIDTH 562 0
DWIDTH 6 0
BBX 5 9 1 0
BITMAP
78
88
80
80
80
80
80
88
70
ENDCHAR
STARTCHAR afii10036
ENCODING 244
SWIDTH 562 0
DWIDTH 6 0
BBX 5 9 1 0
BITMAP
F8
A8
20
20
20
20
20
20
70
ENDCHAR
STARTCHAR afii10037
ENCODING 245
SWIDTH 750 0
DWIDTH 8 0
BBX 7 9 1 0
BITMAP
EE
44
44
28
28
10
10
10
E0
ENDCHAR
STARTCHAR afii10024
ENCODING 246
SWIDTH 937 0
DWIDTH 10 0
BBX 9 9 1 0
BITMAP
DD80
4900
4900
2A00
1C00
2A00
4900
4900
DD80
ENDCHAR
STARTCHAR afii10019
ENCODING 247
SWIDTH 656 0
DWIDTH 7 0
BBX 6 9 1 0
BITMAP
F8
44
44
44
78
44
44
44
F8
ENDCHAR
STARTCHAR afii10046
ENCODING 248
SWIDTH 656 0
DWIDTH 7 0
BBX 6 9 1 0
BITMAP
E0
40
40
40
78
44
44
44
F8
ENDCHAR
STARTCHAR afii10045
ENCODING 249
SWIDTH 937 0
DWIDTH 10 0
BBX 9 9 1 0
BITMAP
E380
4100
4100
4100
7900
4500
4500
4500
FB80
ENDCHAR
STARTCHAR afii10025
ENCODING 250
SWIDTH 562 0
DWIDTH 6 0
BBX 5 9 1 0
BITMAP
70
88
08
08
30
08
08
88
70
ENDCHAR
STARTCHAR afii10042
ENCODING 251
SWIDTH 937 0
DWIDTH 10 0
BBX 9 9 1 0
BITMAP
EB80
4900
4900
4900
4900
4900
4900
4900
FF80
ENDCHAR
STARTCHAR afii10047
ENCODING 252
SWIDTH 562 0
DWIDTH 6 0
BBX 5 9 1 0
BITMAP
70
88
08
08
78
08
08
88
70
ENDCHAR
STARTCHAR afii10043
ENCODING 253
SWIDTH 937 0
DWIDTH 10 0
BBX 9 10 1 -1
BITMAP
EB80
4900
4900
4900
4900
4900
4900
4900
FF80
0080
ENDCHAR
STARTCHAR afii10041
ENCODING 254
SWIDTH 750 0
DWIDTH 8 0
BBX 7 9 1 0
BITMAP
EE
44
44
44
3C
04
04
04
0E
ENDCHAR
STARTCHAR afii10044
ENCODING 255
SWIDTH 750 0
DWIDTH 8 0
BBX 7 9 1 0
BITMAP
F0
A0
A0
20
3C
22
22
22
7C
ENDCHAR
ENDFONT
